<?xml version="1.0" encoding="UTF-8"?>
<svg width="128px" height="128px" viewBox="0 0 128 128" version="1.1" xmlns="http://www.w3.org/2000/svg" xmlns:xlink="http://www.w3.org/1999/xlink">
    <!-- Generator: Sketch 48.1 (47250) - http://www.bohemiancoding.com/sketch -->
    <title>128icon_dark</title>
    <desc>Created with Sketch.</desc>
    <defs></defs>
    <g id="Extension_Icons_dark" stroke="none" stroke-width="1" fill="none" fill-rule="evenodd">
        <g id="128icon" fill="#000000">
            <g id="busca/dark">
                <polygon id="Polygon" points="64 51.2 75.0851252 57.6 75.0851252 70.4 64 76.8 52.9148748 70.4 52.9148748 57.6"></polygon>
                <path d="M56.0545904,105.592302 L71.9454096,105.592302 L105.635958,71.8359877 L105.635958,55.9774053 L72.1985515,22.4747275 L55.8014485,22.4747275 L22.3640425,55.9774053 L22.3640425,71.8359877 L56.0545904,105.592302 Z M46.8542341,127.563529 L46.6048573,127.813393 L0.217810083,81.3357956 L0.498753601,81.0543037 L1.3051486e-14,81.0543037 L0,46.6958327 L0.435620165,46.6958327 L0.217810083,46.4775975 L46.6048573,0 L46.748809,0.144232695 L46.748809,0.0670291115 L81.0403408,0.0670291115 L81.0403408,0.355494502 L81.3951427,3.26924081e-15 L127.78219,46.4775975 L127.56438,46.6958327 L128,46.6958327 L128,81.0543037 L127.501246,81.0543037 L127.78219,81.3357956 L81.3951427,127.813393 L81.1457659,127.563529 L81.1457659,128 L46.8542341,128 L46.8542341,127.563529 Z" id="Combined-Shape"></path>
            </g>
        </g>
    </g>
</svg>