<?xml version="1.0" encoding="UTF-8"?>
<svg width="512px" height="512px" viewBox="0 0 512 512" version="1.1" xmlns="http://www.w3.org/2000/svg" xmlns:xlink="http://www.w3.org/1999/xlink">
    <!-- Generator: Sketch 48.1 (47250) - http://www.bohemiancoding.com/sketch -->
    <title>512icon_dark</title>
    <desc>Created with Sketch.</desc>
    <defs></defs>
    <g id="Extension_Icons_dark" stroke="none" stroke-width="1" fill="none" fill-rule="evenodd">
        <g id="512icon" fill="#000000">
            <g id="busca/dark">
                <polygon id="Polygon" points="256 204.8 300.340501 230.4 300.340501 281.6 256 307.2 211.659499 281.6 211.659499 230.4"></polygon>
                <path d="M224.218361,422.369206 L287.781639,422.369206 L422.54383,287.343951 L422.54383,223.909621 L288.794206,89.8989101 L223.205794,89.8989101 L89.4561699,223.909621 L89.4561699,287.343951 L224.218361,422.369206 Z M187.416936,510.254118 L186.419429,511.253572 L0.871240331,325.343182 L1.9950144,324.217215 L5.22059439e-14,324.217215 L0,186.783331 L1.74248066,186.783331 L0.871240331,185.91039 L186.419429,0 L186.995236,0.576930781 L186.995236,0.268116446 L324.161363,0.268116446 L324.161363,1.42197801 L325.580571,1.30769633e-14 L511.12876,185.91039 L510.257519,186.783331 L512,186.783331 L512,324.217215 L510.004986,324.217215 L511.12876,325.343182 L325.580571,511.253572 L324.583064,510.254118 L324.583064,512 L187.416936,512 L187.416936,510.254118 Z" id="Combined-Shape"></path>
            </g>
        </g>
    </g>
</svg>