<?xml version="1.0" encoding="UTF-8"?>
<svg width="32px" height="32px" viewBox="0 0 32 32" version="1.1" xmlns="http://www.w3.org/2000/svg" xmlns:xlink="http://www.w3.org/1999/xlink">
    <g id="Extension_Icons_dark" stroke="none" stroke-width="1"  fill="context-fill">
        <g id="32icon">
            <g id="busca/dark">
                <polygon id="Polygon" points="16 12.8 18.7712813 14.4 18.7712813 17.6 16 19.2 13.2287187 17.6 13.2287187 14.4"></polygon>
                <path d="M14.0136476,26.3980754 L17.9863524,26.3980754 L26.4089894,17.9589969 L26.4089894,13.9943513 L18.0496379,5.61868188 L13.9503621,5.61868188 L5.59101062,13.9943513 L5.59101062,17.9589969 L14.0136476,26.3980754 Z M11.7135585,31.8908824 L11.6512143,31.9533483 L0.0544525207,20.3339489 L0.1246884,20.2635759 L3.26287149e-15,20.2635759 L0,11.6739582 L0.108905041,11.6739582 L0.0544525207,11.6193994 L11.6512143,0 L11.6872022,0.0360581738 L11.6872022,0.0167572779 L20.2600852,0.0167572779 L20.2600852,0.0888736255 L20.3487857,8.17310203e-16 L31.9455475,11.6193994 L31.891095,11.6739582 L32,11.6739582 L32,20.2635759 L31.8753116,20.2635759 L31.9455475,20.3339489 L20.3487857,31.9533483 L20.2864415,31.8908824 L20.2864415,32 L11.7135585,32 L11.7135585,31.8908824 Z" id="Combined-Shape"></path>
            </g>
        </g>
    </g>
</svg>
